HIERARCHY
ROOT Hips
{
	OFFSET	0.00	0.00	0.00
	CHANNELS 6 Xposition Yposition Zposition Zrotation Xrotation Yrotation
	JOINT LeftUpLeg
	{
		OFFSET	 0.126116	-0.065224	 0.014019
		CHANNELS 3 Zrotation Xrotation Yrotation
		JOINT LeftLeg
		{
			OFFSET	 0.000000	 0.569914	 0.000000
			CHANNELS 3 Zrotation Xrotation Yrotation
			JOINT LeftFoot
			{
				OFFSET	 0.000000	 0.544423	 0.000000
				CHANNELS 3 Zrotation Xrotation Yrotation
				JOINT LeftToeBase
				{
					OFFSET	 0.000000	 0.207117	 0.000000
					CHANNELS 3 Zrotation Xrotation Yrotation
					End Site
					{
						OFFSET	 0.000000	 0.207117	 0.000000
					}
				}
			}
		}
	}
	JOINT RightUpLeg
	{
		OFFSET	-0.124023	-0.065224	 0.008373
		CHANNELS 3 Zrotation Xrotation Yrotation
		JOINT RightLeg
		{
			OFFSET	 0.000000	 0.570047	 0.000000
			CHANNELS 3 Zrotation Xrotation Yrotation
			JOINT RightFoot
			{
				OFFSET	 0.000000	 0.544354	 0.000000
				CHANNELS 3 Zrotation Xrotation Yrotation
				JOINT RightToeBase
				{
					OFFSET	 0.000000	 0.207540	 0.000000
					CHANNELS 3 Zrotation Xrotation Yrotation
					End Site
					{
						OFFSET	 0.000000	 0.207540	 0.000000
					}
				}
			}
		}
	}
	JOINT Spine
	{
		OFFSET	 0.000184	 0.117403	 0.007763
		CHANNELS 3 Zrotation Xrotation Yrotation
		JOINT Spine1
		{
			OFFSET	 0.000000	 0.137269	 0.000000
			CHANNELS 3 Zrotation Xrotation Yrotation
			JOINT Spine2
			{
				OFFSET	 0.000000	 0.156879	 0.000000
				CHANNELS 3 Zrotation Xrotation Yrotation
				JOINT LeftShoulder
				{
					OFFSET	 0.080501	 0.160143	 0.002496
					CHANNELS 3 Zrotation Xrotation Yrotation
					JOINT LeftArm
					{
						OFFSET	 0.000000	 0.164363	 0.000000
						CHANNELS 3 Zrotation Xrotation Yrotation
						JOINT LeftForeArm
						{
							OFFSET	 0.000000	 0.364576	 0.000000
							CHANNELS 3 Zrotation Xrotation Yrotation
							JOINT LeftHand
							{
								OFFSET	 0.000000	 0.360812	 0.000000
								CHANNELS 3 Zrotation Xrotation Yrotation
								JOINT LeftHandIndex1
								{
									OFFSET	 0.000000	 0.086006	 0.000000
									CHANNELS 3 Zrotation Xrotation Yrotation
									JOINT LeftHandIndex2
									{
										OFFSET	 0.000000	 0.047237	 0.000000
										CHANNELS 3 Zrotation Xrotation Yrotation
										JOINT LeftHandIndex3
										{
											OFFSET	-0.004284	 0.038165	 0.000551
											CHANNELS 3 Zrotation Xrotation Yrotation
											End Site
											{
												OFFSET	-0.004284	 0.038165	 0.000551
											}
										}
									}
								}
							}
						}
					}
				}
				JOINT Neck
				{
					OFFSET	 0.000000	 0.176489	 0.000000
					CHANNELS 3 Zrotation Xrotation Yrotation
					JOINT Head
					{
						OFFSET	 0.000000	 0.077941	 0.001747
						CHANNELS 3 Zrotation Xrotation Yrotation
						End Site
						{
							OFFSET	 0.000000	 0.077941	 0.001747
						}
					}
				}
				JOINT RightShoulder
				{
					OFFSET	-0.080363	 0.159706	-0.000306
					CHANNELS 3 Zrotation Xrotation Yrotation
					JOINT RightArm
					{
						OFFSET	 0.000000	 0.164196	 0.000000
						CHANNELS 3 Zrotation Xrotation Yrotation
						JOINT RightForeArm
						{
							OFFSET	 0.000000	 0.365611	 0.000000
							CHANNELS 3 Zrotation Xrotation Yrotation
							JOINT RightHand
							{
								OFFSET	 0.000000	 0.360648	 0.000000
								CHANNELS 3 Zrotation Xrotation Yrotation
								JOINT RightHandIndex1
								{
									OFFSET	 0.000000	 0.069977	 0.000000
									CHANNELS 3 Zrotation Xrotation Yrotation
									JOINT RightHandIndex2
									{
										OFFSET	 0.000000	 0.052305	 0.000000
										CHANNELS 3 Zrotation Xrotation Yrotation
										JOINT RightHandIndex3
										{
											OFFSET	 0.009002	 0.042196	 0.000782
											CHANNELS 3 Zrotation Xrotation Yrotation
											End Site
											{
												OFFSET	 0.009002	 0.042196	 0.000782
											}
										}
									}
								}
							}
						}
					}
				}
			}
		}
	}
}
MOTION
Frames:    9
Frame Time: 0.03333334
-0.004350	 1.233871	 0.011559	 1.135720	 0.290643	 172.024200	-160.927000	 12.303660	-28.193860	 5.149771	-18.631610	 2.841398	-11.709040	 62.075080	 4.042847	 1.161731	 26.685260	-2.659541	 172.667100	 11.065320	 19.264870	-2.590714	-30.861880	 7.642648	 12.718330	 77.669550	-8.831341	-1.288711	 28.368770	 2.710399	 2.633846	 6.618968	 8.099083	-4.870289	 2.644199	 4.538271	 7.284990	-1.950871	-10.386750	-113.068800	 6.501685	 92.948330	 25.834620	 49.391430	 0.401993	 5.297754	-0.261280	-0.387515	 31.431240	-3.253293	 33.363470	 0.659506	 8.347217	-0.355110	-5.948373	 13.646380	 1.525329	 4.990932	-3.404399	-0.332093	 3.182237	-6.828341	 0.891705	-1.213180	-5.787405	 0.788737	 123.374300	 10.387400	-96.374570	-6.858394	 35.977420	-1.501237	-5.351348	-0.200802	 0.365188	 4.423893	-14.352920	 3.320808	-2.343298	 4.956574	 0.894849	 12.551710	 23.086240	-5.204823	-8.502003	 13.255380	-0.535169
-0.004565	 1.234197	 0.011933	 1.076513	 0.181257	 171.444300	-160.786900	 12.294180	-29.056130	 5.197032	-18.790200	 2.622706	-12.072100	 62.039380	 4.517409	 1.161227	 26.678440	-2.659341	 172.604600	 11.331650	 19.213920	-2.590996	-30.934560	 7.407711	 11.419890	 77.531620	-7.567224	-1.288228	 28.362420	 2.710194	 2.918094	 6.530544	 6.808064	-5.029284	 2.564363	 4.593790	 7.380012	-1.995423	-10.258760	-112.849100	 6.532653	 92.971390	 25.883740	 49.666250	 0.596273	 5.728400	-0.261862	-0.934451	 32.277280	-4.291234	 33.239350	 0.830080	 7.817525	-0.352796	-5.946219	 13.765340	 1.538085	 4.999528	-3.215333	-0.327554	 3.176002	-6.832985	 0.927622	-1.215301	-5.890041	 1.065672	 123.226900	 10.411350	-96.359120	-6.737142	 35.963510	-1.385641	-5.778005	-0.201048	 0.912547	 4.332058	-15.788980	 3.941763	-2.405010	 5.149847	 0.892552	 12.589710	 23.596190	-5.328673	-8.505524	 13.672780	-0.561533
-0.004925	 1.234549	 0.012620	 0.986930	 0.006644	 170.513600	-160.575900	 12.271460	-30.324970	 5.265652	-19.019870	 2.271553	-12.693460	 62.025040	 5.291853	 1.160422	 26.667550	-2.659021	 172.557700	 11.761660	 19.016330	-2.589404	-31.025930	 7.033705	 9.417243	 77.326350	-5.627998	-1.287459	 28.352300	 2.709869	 3.374254	 6.368925	 4.688559	-5.155100	 2.456073	 4.620126	 7.473143	-2.069788	-10.056590	-112.498300	 6.582222	 93.007910	 25.988320	 50.169090	 0.886999	 6.413167	-0.262705	-1.806500	 33.600270	-6.049671	 32.975620	 1.102149	 6.971509	-0.345809	-5.942836	 13.955210	 1.558450	 5.013216	-2.913547	-0.320367	 3.166056	-6.840405	 0.984946	-1.217659	-6.054070	 1.508000	 122.991700	 10.449540	-96.334340	-6.573731	 35.910810	-1.182909	-6.455011	-0.201315	 1.785349	 4.161473	-18.097730	 4.811313	-2.503539	 5.458354	 0.889317	 12.653230	 24.410460	-5.528264	-8.510745	 14.339250	-0.603674
-0.005376	 1.234875	 0.013581	 0.877481	-0.205101	 169.353500	-160.323700	 12.229930	-31.825790	 5.343173	-19.278640	 1.832322	-13.498740	 62.028670	 6.272466	 1.159422	 26.654010	-2.658625	 172.550600	 12.297410	 18.686730	-2.585926	-31.116780	 6.569294	 6.987142	 77.068240	-3.294525	-1.286502	 28.339710	 2.709464	 3.936989	 6.138270	 1.967923	-5.126111	 2.363669	 4.557532	 7.503727	-2.173452	-9.808619	-112.061900	 6.644228	 93.052930	 26.148850	 50.854100	 1.226398	 7.263793	-0.263636	-2.888291	 35.193120	-8.366309	 32.543290	 1.440327	 5.918476	-0.331485	-5.938722	 14.191350	 1.583786	 5.030185	-2.538184	-0.311533	 3.153698	-6.849648	 1.056239	-1.218823	-6.258414	 2.058686	 122.699000	 10.496870	-96.303240	-6.422371	 35.776330	-0.894568	-7.291786	-0.201435	 2.868088	 3.888770	-20.952400	 5.703866	-2.626141	 5.842089	 0.886036	 12.737260	 25.423640	-5.779930	-8.516559	 15.168550	-0.656203
-0.005894	 1.235198	 0.014751	 0.756734	-0.437557	 168.051900	-160.048100	 12.165460	-33.453770	 5.419865	-19.533850	 1.337320	-14.417130	 62.036020	 7.378672	 1.158302	 26.638850	-2.658181	 172.593600	 12.892230	 18.260190	-2.579867	-31.186330	 6.050422	 4.334383	 76.756800	-0.773030	-1.285431	 28.325610	 2.709011	 4.555830	 5.839641	-1.156305	-4.893114	 2.327739	 4.387115	 7.444643	-2.312921	-9.535460	-111.573400	 6.714033	 93.102780	 26.371670	 51.657300	 1.575546	 8.212040	-0.264771	-4.093437	 36.894300	-11.080590	 31.949930	 1.818847	 4.738788	-0.308060	-5.934238	 14.455720	 1.612160	 5.049107	-2.117942	-0.301777	 3.139876	-6.860013	 1.136047	-1.217776	-6.487522	 2.675679	 122.371300	 10.549700	-96.268180	-6.323805	 35.534320	-0.521962	-8.219525	-0.201352	 4.074427	 3.484050	-24.083200	 6.493727	-2.763479	 6.271714	 0.883339	 12.838170	 26.558270	-6.066428	-8.522155	 16.097340	-0.715184
-0.006602	 1.235627	 0.016358	 0.599510	-0.739345	 166.352300	-159.696700	 12.056550	-35.528370	 5.505131	-19.816520	 0.686851	-15.627740	 62.037440	 8.826838	 1.156842	 26.619080	-2.657603	 172.714500	 13.654310	 17.752230	-2.631702	-31.217540	 5.253008	 0.988683	 76.302720	 2.371347	-1.284034	 28.307230	 2.708421	 5.334120	 5.385606	-5.291697	-4.355591	 2.399122	 4.052340	 7.257504	-2.543681	-9.185786	-110.936100	 6.805718	 93.166890	 26.736960	 52.700590	 1.976291	 9.438588	-0.266047	-5.652046	 38.964820	-14.719210	 31.059810	 2.312873	 3.199166	-0.265788	-5.928587	 14.800560	 1.649191	 5.073677	-1.569737	-0.289262	 3.121869	-6.873561	 1.240145	-1.212661	-6.786791	 3.481208	 121.943600	 10.618290	-96.221940	-6.305934	 35.091880	 0.040583	-9.416153	-0.201052	 5.634501	 2.789194	-28.000090	 7.273883	-2.942785	 6.832168	 0.881376	 12.981100	 28.038500	-6.448222	-8.527996	 17.309350	-0.792441
-0.007597	 1.236245	 0.018435	 0.389845	-1.132174	 164.156400	-159.257400	 11.878820	-38.159770	 5.594363	-20.111160	-0.161648	-17.216340	 62.020750	 10.712780	 1.154954	 26.593490	-2.656855	 172.952300	 14.608080	 16.919960	-2.627349	-31.175490	 4.350748	-3.119019	 75.632000	 6.186907	-1.282227	 28.283440	 2.707659	 6.270396	 4.697121	-10.607560	-3.449331	 2.697839	 3.526324	 6.913866	-2.941182	-8.743320	-110.111400	 6.925414	 93.248360	 27.331100	 53.939990	 2.401035	 11.001360	-0.267558	-7.637664	 41.382560	-19.384230	 29.823950	 2.953362	 1.206716	-0.191415	-5.921602	 15.246770	 1.697143	 5.105284	-0.860371	-0.273421	 3.098606	-6.891139	 1.374835	-1.199707	-7.174481	 4.524294	 121.390000	 10.706540	-96.161320	-6.443942	 34.366790	 0.874531	-10.937880	-0.200470	 7.622330	 1.654001	-32.681920	 8.056725	-3.175104	 7.557387	 0.881459	 13.186100	 29.953270	-6.956976	-8.533051	 18.878010	-0.893035
-0.008754	 1.236929	 0.020376	 0.157075	-1.541854	 161.912100	-158.826500	 11.668730	-40.813930	 5.673944	-20.373020	-1.034870	-18.888420	 62.000350	 12.669380	 1.153020	 26.567270	-2.656090	 173.253400	 15.547480	 16.001660	-2.614599	-31.052180	 3.435486	-7.011402	 74.859510	 9.768391	-1.280377	 28.259060	 2.706878	 7.123429	 3.891018	-15.825000	-2.526599	 3.203542	 3.005739	 6.561517	-3.457818	-8.298913	-109.266200	 7.049264	 93.330060	 28.023900	 54.988550	 2.770779	 12.566300	-0.268899	-9.624490	 43.584510	-23.822010	 28.597490	 3.612289	-0.833980	-0.092114	-5.914831	 15.704040	 1.746331	 5.137468	-0.133424	-0.257595	 3.074809	-6.909209	 1.512861	-1.178969	-7.571928	 5.593630	 120.822500	 10.796380	-96.098310	-6.689882	 33.550430	 1.791284	-12.461620	-0.199716	 9.611186	 0.377713	-36.926290	 8.894767	-3.413604	 8.300564	 0.884627	 13.421240	 31.913600	-7.497350	-8.535233	 20.485490	-0.996993
-0.010323	 1.237643	 0.022113	-0.138563	-2.005606	 159.380500	-158.355300	 11.418070	-43.782960	 5.777928	-20.713820	-2.017722	-20.900490	 62.018310	 14.960240	 1.150831	 26.537590	-2.655226	 173.610300	 16.569080	 14.897380	-2.595945	-30.871610	 2.407541	-10.982530	 73.917900	 13.411160	-1.278282	 28.231450	 2.705996	 7.945790	 2.900244	-21.205310	-1.816710	 3.880832	 2.594478	 6.316047	-4.117717	-7.800663	-108.309300	 7.190913	 93.420330	 28.754070	 55.862960	 3.233198	 14.280350	-0.270143	-11.799540	 45.852690	-28.039370	 27.440260	 4.363041	-3.141167	 0.048703	-5.907639	 16.221800	 1.802094	 5.173666	 0.689633	-0.240169	 3.047915	-6.929739	 1.669145	-1.146343	-8.021552	 6.804071	 120.179500	 10.897350	-96.025850	-6.919670	 32.701320	 2.789807	-14.137010	-0.199125	 11.788720	-0.856430	-40.988820	 10.329770	-3.684254	 9.141946	 0.892003	 13.720590	 34.129190	-8.135161	-8.533930	 22.304780	-1.115958
